<?xml version="1.0" encoding="UTF-8"?>
<svg id="Layer_2" xmlns="http://www.w3.org/2000/svg" viewBox="0 0 2532.73 3002.72">
  <defs>
    <style>
      .cls-1 {
        fill: #fff;
        stroke-miterlimit: 10;
      }

      .cls-1, .cls-2 {
        stroke: #fff;
      }

      .cls-2 {
        fill: none;
        stroke-linejoin: round;
        stroke-width: 57.16px;
      }
    </style>
  </defs>
  <g id="Layer_1-2" data-name="Layer_1">
    <g>
      <path class="cls-2" d="M646.12,2528.58L28.58,28.58l2475.56,712.73-1858.02,1787.27Z"/>
      <path class="cls-2" d="M1265.91,385.02l308.55,1250.37-1237.1-356.48,928.55-893.89Z"/>
      <path class="cls-2" d="M958.94,1448.5l-153.25-621.14,614.61,176.43-461.36,444.71ZM652.38,206.97l153.25,621.14-614.61-176.43,461.36-444.71ZM1881.55,561.05l153.25,621.14-614.61-176.43,461.36-444.71ZM959.01,1448.93l153.25,621.14-614.61-176.43,461.36-444.71Z"/>
      <path class="cls-1" d="M234.69,2838.56c-11.46,26.39-33.11,37.88-53.7,37.88-26.04,0-50.43-18.94-50.43-57v-134.88h109.43v-34.76h-109.43v-94.85l-38.59-2.74v97.59h-41.68v34.76h41.68v134.88c0,60.27,43.86,95.03,89.58,95.03,33.47,0,68.25-18,87.73-60.24l-34.58-15.67ZM558.21,2877.53v-104.13c0-64.45-26.95-130.7-93.76-130.7-32.05,0-65.54,14.73-78.09,37.5v-125.25l-38.44-2.74v355.16h38.41v-186.05c11.49-22.74,27.69-40.06,59.18-40.06,45.51,0,71.55,36.79,71.55,82.3v143.81h43.86c-2.74-9.28-2.74-20.03-2.74-29.84h.03ZM855.28,2692.01l23.83-37.32c-29.11-11.46-38.94-11.99-48.76-11.99-20.03,0-60.62,3.27-78.65,37.5,0-6.01,3.8-25.51,7.1-30.42h-94.85v28.78l52.61,2.74v194.59h-79.74v31.49h196.24c-2.71-9.28-2.71-20.03-2.71-29.84v-1.65h-76.47v-147.99c8.75-38.59,57.53-59.71,101.42-35.88h-.03ZM1050.44,2642.7c-73.73,0-112.32,48.22-114.32,131.23v23.33c0,68.25,48.78,117.21,116.5,117.21,38.06,0,73.2-16.38,98.12-43.51l-22.74-28.19c-29.31,28.19-53.7,36.41-76.47,36.41-45.51,0-77.53-33.7-77.53-81.94l183.87-1.09.53-22.21c3.3-83.54-34.76-131.23-107.96-131.23ZM1117.8,2762.47h-143.25c2.16-52.99,22.18-86.1,72.06-86.1s73.73,30.93,71.19,86.1ZM1348.63,2642.7c-73.73,0-112.32,48.22-114.5,131.23v23.33c0,68.25,48.78,117.21,116.68,117.21,37.35-.14,72.94-15.92,98.12-43.51l-22.74-28.19c-29.31,28.19-53.7,36.41-76.47,36.41-45.51,0-77.53-33.7-77.53-81.94l183.87-1.09.53-22.21c3.3-83.54-34.76-131.23-107.96-131.23ZM1415.82,2762.47h-143.1c2.18-52.99,22.21-86.1,72.08-86.1s73.73,30.93,70.99,86.1h.03ZM1616.42,2885.72c0,18.38,10.4,28.75,28.78,28.75s28.22-10.37,28.22-28.75-10.4-28.22-28.22-28.22-28.78,10.19-28.78,28.22ZM1988.87,2604.29c17.85,0,28.24-9.84,28.24-28.78s-10.4-27.66-28.22-27.66-28.22,9.63-28.22,27.66c0,18.94,9.81,28.78,28.22,28.78h-.03ZM1920.09,2649.8v28.75l53.14,2.74v226.08c0,38.41-24.39,57-50.43,57-21.3,0-42.95-11.49-54.26-37.52l-34.23,15.14c19.5,42.95,54.26,60.24,87.95,60.24,45.51,0,89.37-34.23,89.37-94.82l.56-257.6h-92.11ZM2256.69,2759.94c-49.34-9.3-72.11-21.3-72.11-41.89,0-23.3,28.22-40.06,67.72-40.06,28.22,0,47.16,8.57,68.28,30.96l24.39-24.39c-18.94-27.13-53.52-41.86-97.03-41.86-59.53,0-99.77,30.4-99.77,76.44,0,40.24,30.93,63.54,105.22,78.65,44.98,8.75,58.62,16.73,58.62,34.23,0,25.48-30.93,47.69-66.25,47.69-30.22,0-57.35-16.73-82.3-46.04l-26.01,26.57c26.57,35.14,61.71,54.26,107.76,54.26,62.45,0,103.04-34.79,103.04-83.04,0-39.12-26.57-59.15-91.55-71.52h0Z"/>
    </g>
  </g>
</svg>